<?xml version="1.0" encoding="iso-8859-1"?>
<!-- Generator: Adobe Illustrator 19.0.0, SVG Export Plug-In . SVG Version: 6.00 Build 0)  -->
<svg version="1.1" id="Layer_1" xmlns="http://www.w3.org/2000/svg" xmlns:xlink="http://www.w3.org/1999/xlink" x="0px" y="0px"
	 viewBox="0 0 512 512" style="enable-background:new 0 0 512 512;" xml:space="preserve">
<g>
	<g>
		<polygon points="340.272,216.774 171.729,216.774 153.438,288.295 358.563,288.295 		"/>
	</g>
</g>
<g>
	<g>
		<path d="M397.611,433.547h-1.902l-10.984-42.95h-257.45l-10.984,42.95h-1.901c-21.664,0-39.227,17.562-39.227,39.227
			c0,21.664,17.562,39.226,39.227,39.226h283.222c21.664,0,39.226-17.562,39.226-39.226
			C436.837,451.109,419.275,433.547,397.611,433.547z"/>
	</g>
</g>
<g>
	<g>
		<path d="M291.978,27.934C287.774,11.498,272.966,0,256.001,0s-31.774,11.498-35.977,27.934l-22.131,86.537
			c0,0,116.216,0,116.216,0L291.978,27.934z"/>
	</g>
</g>
<g>
</g>
<g>
</g>
<g>
</g>
<g>
</g>
<g>
</g>
<g>
</g>
<g>
</g>
<g>
</g>
<g>
</g>
<g>
</g>
<g>
</g>
<g>
</g>
<g>
</g>
<g>
</g>
<g>
</g>
</svg>
